<?xml version="1.0" encoding="UTF-8"?>
<svg width="1200" height="800" viewBox="0 0 1200 800" xmlns="http://www.w3.org/2000/svg">
    <defs>
        <linearGradient id="grad3" x1="0%" y1="0%" x2="100%" y2="100%">
            <stop offset="0%" style="stop-color:#b74e91;stop-opacity:1" />
            <stop offset="100%" style="stop-color:#5e42a6;stop-opacity:1" />
        </linearGradient>
    </defs>
    <rect width="100%" height="100%" fill="url(#grad3)"/>
    <!-- White Container -->
    <rect x="300" y="200" width="600" height="400" rx="20" fill="white"/>
    
    <!-- Simple Bar Chart -->
    <g transform="translate(350, 300)">
        <rect x="0" y="0" width="40" height="200" fill="#5e42a6"/>
        <rect x="60" y="40" width="40" height="160" fill="#5052b5"/>
        <rect x="120" y="120" width="40" height="80" fill="#b74e91"/>
        <line x1="0" y1="200" x2="160" y2="200" stroke="#ddd" stroke-width="2"/>
    </g>

    <!-- Simple Line Chart -->
    <g transform="translate(350, 550)">
        <path d="M0,-20 L50,-80 L100,-40 L150,-60" 
              stroke="#5e42a6" 
              stroke-width="3" 
              fill="none"/>
        <circle cx="0" cy="-20" r="4" fill="#5e42a6"/>
        <circle cx="50" cy="-80" r="4" fill="#5e42a6"/>
        <circle cx="100" cy="-40" r="4" fill="#5e42a6"/>
        <circle cx="150" cy="-60" r="4" fill="#5e42a6"/>
    </g>

    <!-- Simple Pie Chart -->
    <g transform="translate(750, 400)">
        <circle cx="0" cy="0" r="80" fill="#5e42a6"/>
        <path d="M0,0 L80,0 A80,80 0 0,1 40,69.28 Z" fill="#5052b5"/>
        <path d="M0,0 L40,69.28 A80,80 0 0,1 -80,0 Z" fill="#b74e91"/>
    </g>
</svg> 