<?xml version="1.0" encoding="UTF-8"?>
<svg width="1200" height="800" viewBox="0 0 1200 800" xmlns="http://www.w3.org/2000/svg">
    <defs>
        <linearGradient id="grad1" x1="0%" y1="0%" x2="100%" y2="100%">
            <stop offset="0%" style="stop-color:#5e42a6;stop-opacity:1" />
            <stop offset="100%" style="stop-color:#5052b5;stop-opacity:1" />
        </linearGradient>
    </defs>
    <rect width="100%" height="100%" fill="url(#grad1)"/>
    <!-- Calendar Base -->
    <rect x="300" y="200" width="600" height="400" fill="white" rx="15"/>
    <!-- Calendar Header -->
    <rect x="300" y="200" width="600" height="80" fill="#5e42a6" rx="15"/>
    <!-- Calendar Grid -->
    <g stroke="#eee" stroke-width="2" fill="none">
        <line x1="300" y1="320" x2="900" y2="320"/>
        <line x1="300" y1="400" x2="900" y2="400"/>
        <line x1="300" y1="480" x2="900" y2="480"/>
        <line x1="500" y1="280" x2="500" y2="600"/>
        <line x1="700" y1="280" x2="700" y2="600"/>
    </g>
    <!-- Checkmarks -->
    <g fill="#5052b5">
        <circle cx="400" cy="360" r="20"/>
        <path d="M390,360 L400,370 L420,350" stroke="white" stroke-width="4" fill="none"/>
        <circle cx="600" cy="440" r="20"/>
        <path d="M590,440 L600,450 L620,430" stroke="white" stroke-width="4" fill="none"/>
        <circle cx="800" cy="520" r="20"/>
        <path d="M790,520 L800,530 L820,510" stroke="white" stroke-width="4" fill="none"/>
    </g>
</svg> 