<?xml version="1.0" encoding="UTF-8"?>
<svg width="1200" height="800" viewBox="0 0 1200 800" xmlns="http://www.w3.org/2000/svg">
    <defs>
        <linearGradient id="grad2" x1="0%" y1="0%" x2="100%" y2="100%">
            <stop offset="0%" style="stop-color:#5052b5;stop-opacity:1" />
            <stop offset="100%" style="stop-color:#b74e91;stop-opacity:1" />
        </linearGradient>
    </defs>
    <rect width="100%" height="100%" fill="url(#grad2)"/>
    <!-- Phone Outline -->
    <rect x="400" y="150" width="400" height="500" rx="40" fill="white"/>
    <rect x="420" y="170" width="360" height="460" rx="30" fill="#f8f9fa"/>
    <!-- Notification Icons -->
    <g>
        <!-- Notification 1 -->
        <rect x="440" y="200" width="320" height="80" rx="10" fill="white" stroke="#5e42a6" stroke-width="2"/>
        <circle cx="480" cy="240" r="15" fill="#5e42a6"/>
        <rect x="510" y="220" width="200" height="10" rx="5" fill="#5e42a6"/>
        <rect x="510" y="240" width="150" height="10" rx="5" fill="#5e42a6" opacity="0.5"/>
        <!-- Notification 2 -->
        <rect x="440" y="300" width="320" height="80" rx="10" fill="white" stroke="#5052b5" stroke-width="2"/>
        <circle cx="480" cy="340" r="15" fill="#5052b5"/>
        <rect x="510" y="320" width="180" height="10" rx="5" fill="#5052b5"/>
        <rect x="510" y="340" width="130" height="10" rx="5" fill="#5052b5" opacity="0.5"/>
        <!-- Notification 3 -->
        <rect x="440" y="400" width="320" height="80" rx="10" fill="white" stroke="#b74e91" stroke-width="2"/>
        <circle cx="480" cy="440" r="15" fill="#b74e91"/>
        <rect x="510" y="420" width="220" height="10" rx="5" fill="#b74e91"/>
        <rect x="510" y="440" width="170" height="10" rx="5" fill="#b74e91" opacity="0.5"/>
    </g>
</svg> 